<mxfile host="app.diagrams.net" agent="Mozilla/5.0 (Windows NT 10.0; Win64; x64) AppleWebKit/537.36 (KHTML, like Gecko) Chrome/130.0.0.0 Safari/537.36" version="24.8.3">
  <diagram name="Page-1" id="QswwUnQngrrrR41rvFHV">
    <mxGraphModel dx="794" dy="458" grid="1" gridSize="10" guides="1" tooltips="1" connect="1" arrows="1" fold="1" page="1" pageScale="1" pageWidth="850" pageHeight="1100" math="0" shadow="0">
      <root>
        <mxCell id="0" />
        <mxCell id="1" parent="0" />
        <mxCell id="MGqxOQjQ2G1yOWloJfBR-12" value=":CriteriaCommand" style="shape=umlLifeline;perimeter=lifelinePerimeter;whiteSpace=wrap;html=1;container=1;dropTarget=0;collapsible=0;recursiveResize=0;outlineConnect=0;portConstraint=eastwest;newEdgeStyle={&quot;edgeStyle&quot;:&quot;elbowEdgeStyle&quot;,&quot;elbow&quot;:&quot;vertical&quot;,&quot;curved&quot;:0,&quot;rounded&quot;:0};" parent="1" vertex="1">
          <mxGeometry x="170" y="40" width="100" height="320" as="geometry" />
        </mxCell>
        <mxCell id="MGqxOQjQ2G1yOWloJfBR-18" value="" style="html=1;points=[[0,0,0,0,5],[0,1,0,0,-5],[1,0,0,0,5],[1,1,0,0,-5]];perimeter=orthogonalPerimeter;outlineConnect=0;targetShapes=umlLifeline;portConstraint=eastwest;newEdgeStyle={&quot;curved&quot;:0,&quot;rounded&quot;:0};" parent="MGqxOQjQ2G1yOWloJfBR-12" vertex="1">
          <mxGeometry x="45" y="60" width="10" height="240" as="geometry" />
        </mxCell>
        <mxCell id="MGqxOQjQ2G1yOWloJfBR-14" value=":StudentList" style="shape=umlLifeline;perimeter=lifelinePerimeter;whiteSpace=wrap;html=1;container=1;dropTarget=0;collapsible=0;recursiveResize=0;outlineConnect=0;portConstraint=eastwest;newEdgeStyle={&quot;edgeStyle&quot;:&quot;elbowEdgeStyle&quot;,&quot;elbow&quot;:&quot;vertical&quot;,&quot;curved&quot;:0,&quot;rounded&quot;:0};" parent="1" vertex="1">
          <mxGeometry x="520" y="40" width="100" height="320" as="geometry" />
        </mxCell>
        <mxCell id="MGqxOQjQ2G1yOWloJfBR-29" value="" style="html=1;points=[[0,0,0,0,5],[0,1,0,0,-5],[1,0,0,0,5],[1,1,0,0,-5]];perimeter=orthogonalPerimeter;outlineConnect=0;targetShapes=umlLifeline;portConstraint=eastwest;newEdgeStyle={&quot;curved&quot;:0,&quot;rounded&quot;:0};" parent="MGqxOQjQ2G1yOWloJfBR-14" vertex="1">
          <mxGeometry x="45" y="120" width="10" height="123" as="geometry" />
        </mxCell>
        <mxCell id="MGqxOQjQ2G1yOWloJfBR-51" value="" style="shape=umlDestroy;dashed=0;targetShapes=umlLifeline;" parent="MGqxOQjQ2G1yOWloJfBR-14" vertex="1">
          <mxGeometry x="30" y="297" width="40" height="40" as="geometry" />
        </mxCell>
        <mxCell id="MGqxOQjQ2G1yOWloJfBR-16" value=":Allocator" style="shape=umlLifeline;perimeter=lifelinePerimeter;whiteSpace=wrap;html=1;container=1;dropTarget=0;collapsible=0;recursiveResize=0;outlineConnect=0;portConstraint=eastwest;newEdgeStyle={&quot;edgeStyle&quot;:&quot;elbowEdgeStyle&quot;,&quot;elbow&quot;:&quot;vertical&quot;,&quot;curved&quot;:0,&quot;rounded&quot;:0};" parent="1" vertex="1">
          <mxGeometry x="325" y="40" width="100" height="320" as="geometry" />
        </mxCell>
        <mxCell id="MGqxOQjQ2G1yOWloJfBR-17" value="" style="html=1;points=[[0,0,0,0,5],[0,1,0,0,-5],[1,0,0,0,5],[1,1,0,0,-5]];perimeter=orthogonalPerimeter;outlineConnect=0;targetShapes=umlLifeline;portConstraint=eastwest;newEdgeStyle={&quot;curved&quot;:0,&quot;rounded&quot;:0};" parent="MGqxOQjQ2G1yOWloJfBR-16" vertex="1">
          <mxGeometry x="45" y="70" width="10" height="230" as="geometry" />
        </mxCell>
        <mxCell id="MGqxOQjQ2G1yOWloJfBR-19" value="" style="html=1;verticalAlign=bottom;labelBackgroundColor=none;endArrow=block;endFill=1;rounded=0;" parent="1" edge="1">
          <mxGeometry width="160" relative="1" as="geometry">
            <mxPoint x="226" y="112" as="sourcePoint" />
            <mxPoint x="369.9999999999998" y="112" as="targetPoint" />
            <Array as="points">
              <mxPoint x="280" y="112" />
            </Array>
          </mxGeometry>
        </mxCell>
        <mxCell id="MGqxOQjQ2G1yOWloJfBR-23" value="&lt;font style=&quot;font-size: 10px;&quot;&gt;setMinimumGPA()&lt;/font&gt;" style="text;html=1;align=center;verticalAlign=middle;resizable=0;points=[];autosize=1;strokeColor=none;fillColor=none;" parent="1" vertex="1">
          <mxGeometry x="246" y="90" width="100" height="30" as="geometry" />
        </mxCell>
        <mxCell id="MGqxOQjQ2G1yOWloJfBR-30" value="&lt;span style=&quot;font-size: 10px;&quot;&gt;validateGpa()&lt;/span&gt;" style="text;html=1;align=center;verticalAlign=middle;resizable=0;points=[];autosize=1;strokeColor=none;fillColor=none;" parent="1" vertex="1">
          <mxGeometry x="425" y="137" width="80" height="30" as="geometry" />
        </mxCell>
        <mxCell id="MGqxOQjQ2G1yOWloJfBR-34" value="" style="html=1;verticalAlign=bottom;labelBackgroundColor=none;endArrow=open;endFill=0;dashed=1;rounded=0;" parent="1" edge="1">
          <mxGeometry width="160" relative="1" as="geometry">
            <mxPoint x="374.5" y="340" as="sourcePoint" />
            <mxPoint x="225" y="340" as="targetPoint" />
            <Array as="points">
              <mxPoint x="240" y="340" />
            </Array>
          </mxGeometry>
        </mxCell>
        <mxCell id="MGqxOQjQ2G1yOWloJfBR-13" value="" style="shape=umlDestroy;dashed=0;targetShapes=umlLifeline;" parent="1" vertex="1">
          <mxGeometry x="200" y="340" width="40" height="40" as="geometry" />
        </mxCell>
        <mxCell id="MGqxOQjQ2G1yOWloJfBR-55" value="" style="html=1;verticalAlign=bottom;labelBackgroundColor=none;endArrow=block;endFill=1;rounded=0;" parent="1" edge="1" target="MGqxOQjQ2G1yOWloJfBR-14">
          <mxGeometry width="160" relative="1" as="geometry">
            <mxPoint x="380" y="160" as="sourcePoint" />
            <mxPoint x="523.9999999999998" y="160" as="targetPoint" />
            <Array as="points">
              <mxPoint x="434" y="160" />
            </Array>
          </mxGeometry>
        </mxCell>
        <mxCell id="uAFImR3a9qrnWUWrdZEK-4" value="" style="html=1;verticalAlign=bottom;labelBackgroundColor=none;endArrow=open;endFill=0;dashed=1;rounded=0;" edge="1" parent="1" target="MGqxOQjQ2G1yOWloJfBR-17">
          <mxGeometry width="160" relative="1" as="geometry">
            <mxPoint x="569.5" y="283" as="sourcePoint" />
            <mxPoint x="370.5" y="283" as="targetPoint" />
            <Array as="points">
              <mxPoint x="385.5" y="283" />
            </Array>
          </mxGeometry>
        </mxCell>
        <mxCell id="uAFImR3a9qrnWUWrdZEK-5" value="&lt;span style=&quot;font-size: 10px;&quot;&gt;:float&lt;/span&gt;" style="text;html=1;align=center;verticalAlign=middle;resizable=0;points=[];autosize=1;strokeColor=none;fillColor=none;" vertex="1" parent="1">
          <mxGeometry x="440" y="260" width="50" height="30" as="geometry" />
        </mxCell>
      </root>
    </mxGraphModel>
  </diagram>
</mxfile>
